<?xml version="1.0" encoding="iso-8859-1"?>
<!-- Generator: Adobe Illustrator 16.0.0, SVG Export Plug-In . SVG Version: 6.00 Build 0)  -->
<!DOCTYPE svg PUBLIC "-//W3C//DTD SVG 1.1//EN" "http://www.w3.org/Graphics/SVG/1.1/DTD/svg11.dtd">
<svg version="1.1" id="Capa_1" xmlns="http://www.w3.org/2000/svg" xmlns:xlink="http://www.w3.org/1999/xlink" x="0px" y="0px"
	 width="489.999px" height="489.999px" viewBox="0 0 489.999 489.999" style="enable-background:new 0 0 489.999 489.999;"
	 xml:space="preserve">
<g>
	<g id="Layer_2_17_">
		<g>
			<path d="M196.144,215.159c-11.602,0-21.011,9.407-21.011,20.996c0,11.572,9.409,20.994,21.011,20.994
				c11.569,0,20.979-9.393,20.979-20.994C217.123,224.565,207.713,215.159,196.144,215.159z M200.449,249.529
				c-5.947,0-10.762-4.827-10.762-10.787c0-5.934,4.815-10.76,10.762-10.76c5.943,0,10.741,4.826,10.741,10.76
				C211.191,244.702,206.392,249.529,200.449,249.529z"/>
			<path d="M293.855,215.159c-11.569,0-20.979,9.407-20.979,20.996c0,11.602,9.41,20.994,20.979,20.994
				c11.602,0,21.011-9.422,21.011-20.994C314.866,224.565,305.457,215.159,293.855,215.159z M289.549,249.529
				c-5.942,0-10.741-4.827-10.741-10.787c0-5.934,4.799-10.76,10.741-10.76c5.947,0,10.763,4.826,10.763,10.76
				C300.312,244.702,295.497,249.529,289.549,249.529z"/>
			<path d="M331.88,375.26c-6.636,0-18.296,0-29.788,0c-0.032,0-0.066,0.006-0.098,0.008c-0.103-0.006-0.203-0.017-0.307-0.017
				c-2.679,0-4.971,1.646-5.928,3.979c-0.095,0.155-0.178,0.308-0.229,0.447c-7.007,18.854-22.333,58.49-34.941,79.943
				l-2.079-32.624c0,0,14.679-31.152,16.288-34.008c3.778-6.689,0.373-12.386-6.716-12.386c-3.519,0-12.319,0-21.13,0
				c-0.51,0-1.02,0-1.528,0c-0.011,0-0.021,0-0.032,0c0,0-0.001,0-0.002,0c-0.049,0-0.098,0-0.147,0c-0.001,0-0.001,0-0.002,0
				c-0.011,0-0.021,0-0.032,0c-0.04,0-0.079,0-0.119,0c-0.061,0-0.122,0-0.183,0c-0.04,0-0.079,0-0.119,0c-0.011,0-0.021,0-0.032,0
				c-0.001,0-0.001,0-0.002,0c-0.049,0-0.098,0-0.147,0c-0.001,0-0.001,0-0.002,0c-0.011,0-0.021,0-0.032,0
				c-0.509,0-1.018,0-1.528,0c-8.811,0-17.611,0-21.13,0c-7.089,0-10.494,5.696-6.716,12.386
				c1.609,2.854,16.288,34.008,16.288,34.008l-2.079,32.624c-12.608-21.453-27.934-61.089-34.941-79.943
				c-0.052-0.141-0.135-0.292-0.23-0.447c-0.957-2.334-3.249-3.979-5.928-3.979c-0.103,0-0.204,0.011-0.306,0.017
				c-0.032-0.002-0.066-0.008-0.098-0.008c-11.491,0-23.151,0-29.788,0c-29.207,0-68.321,26.6-68.321,60.499c0,33.9,0,54.24,0,54.24
				h152.809h1.968h0.032h0.002h0.147h0.002h0.032h0.119h0.183h0.119h0.032h0.002h0.147h0.002h0.032h1.967h152.81
				c0,0,0-20.34,0-54.24C400.202,401.859,361.087,375.26,331.88,375.26z"/>
			<path d="M385.109,180.602c-0.632-2.464-1.352-4.907-2.109-7.338c47.135-17.699,47.646-56.626,24.143-77.192
				c-17.631-15.417-29.521-8.224-55.761,1.353v-9.02c0-42.507-24.028-88.268-105.957-88.403V0c-0.011,0-0.034,0-0.034,0
				c-0.025,0-0.805,0-0.816,0v0.002c-81.928,0.136-105.957,45.896-105.957,88.403v9.02c-26.239-9.577-38.13-16.77-55.761-1.353
				C59.354,116.638,59.865,155.566,107,173.264c-0.758,2.431-1.478,4.874-2.11,7.338c-16.3,7.012-26.189,24.855-26.189,48.06
				c0,13.942,3.303,25.188,9.818,33.424c6.556,8.29,16.035,12.984,27.547,13.684c11.731,20.689,28.928,39.494,48.925,53.394
				c23.951,16.649,50.47,25.448,76.69,25.448c0.517,0,1.898,0,3.228,0c0.061,0,0.122,0,0.183,0c1.33,0,2.71,0,3.228,0
				c26.22,0,52.738-8.799,76.689-25.448c19.997-13.899,37.194-32.704,48.925-53.394c11.514-0.699,20.991-5.395,27.547-13.684
				c6.516-8.236,9.818-19.482,9.818-33.424C411.298,205.457,401.41,187.614,385.109,180.602z M370.878,257.086
				c-0.336,0-0.832-0.04-1.356-0.081l-6.644-0.511l-2.854,5.535c-18.324,35.548-61.098,73.808-111.706,73.808
				c-0.515,0-1.896,0-3.228,0c-0.061,0-0.122,0-0.183,0c-1.332,0-2.714,0-3.228,0c-50.609,0-93.382-38.26-111.707-73.808
				l-2.854-5.535l-6.644,0.511c-0.524,0.042-1.02,0.081-1.356,0.081c-14.363,0-21.645-9.562-21.645-28.424
				c0-6.213,1.215-26.414,16.425-31.41c0.947,6.507,4.624,27.392,12.982,28.712c9.91,1.564,2.708-47.441,27.408-47.441
				c9.682,0,50.179,0,90.618,0c0.061,0,0.122,0,0.183,0c40.439,0,80.935,0,90.618,0c24.7,0,17.498,49.005,27.408,47.441
				c8.357-1.32,12.035-22.205,12.981-28.712c15.21,4.996,16.425,25.197,16.425,31.41
				C392.523,247.523,385.242,257.086,370.878,257.086z"/>
		</g>
	</g>
</g>
<g>
</g>
<g>
</g>
<g>
</g>
<g>
</g>
<g>
</g>
<g>
</g>
<g>
</g>
<g>
</g>
<g>
</g>
<g>
</g>
<g>
</g>
<g>
</g>
<g>
</g>
<g>
</g>
<g>
</g>
</svg>
